<?xml version="1.0" encoding="UTF-8" standalone="no"?>
<!-- Created with Inkscape (http://www.inkscape.org/) -->
<svg xmlns:rdf="http://www.w3.org/1999/02/22-rdf-syntax-ns#" xmlns="http://www.w3.org/2000/svg" height="297.96" width="385.57" version="1.1" xmlns:cc="http://creativecommons.org/ns#" xmlns:dc="http://purl.org/dc/elements/1.1/" viewBox="0 0 102.0159 78.835935">
 <metadata>
  <rdf:RDF>
   <cc:Work rdf:about="">
    <dc:format>image/svg+xml</dc:format>
    <dc:type rdf:resource="http://purl.org/dc/dcmitype/StillImage"/>
    <dc:title/>
   </cc:Work>
  </rdf:RDF>
 </metadata>
 <g transform="translate(372.25 -98.139)">
  <path stroke-linejoin="round" d="m-361.14 105.68c9.9754 0 9.9754 40.862 19.951 40.862 9.9754 0 9.9754-40.862 19.951-40.862 9.9754 0 9.9754 40.862 19.951 40.862 9.9754 0 9.9754-40.862 19.951-40.862" stroke="#000" stroke-linecap="round" stroke-width="4.4979" fill="none"/>
  <g aria-label="VOCODER" stroke-width=".34803">
   <path d="m-360.06 171.46h-1.7619l-5.1334-15.324h1.7945l3.4803 10.789t0.26102 0.96796l0.25014 0.87007t0.23927 0.87007q0 0 0.2284-0.84832 0 0 0.23927-0.85919l0.28277-1.0006 3.4585-10.789h1.7945z"/>
   <path d="m-341.51 163.73q0 1.7945-0.42416 3.2628-0.42416 1.4682-1.229 2.5123-0.80482 1.0441-1.9685 1.6096-1.1528 0.56555-2.632 0.56555-1.5553 0-2.719-0.5873-1.1637-0.59817-1.9468-1.6531-0.77219-1.0658-1.1637-2.5232-0.39153-1.4574-0.39153-3.1866 0-1.7945 0.40241-3.241 0.41328-1.4465 1.2072-2.458 0.79394-1.0223 1.9577-1.5661 1.1637-0.55467 2.6755-0.55467 1.5009 0 2.6646 0.55467t1.9468 1.577q0.79394 1.0223 1.2072 2.4688 0.41328 1.4465 0.41328 3.2193zm-1.7401 0q0-1.3812-0.29365-2.5123t-0.85919-1.9359q-0.56555-0.80481-1.403-1.2398-0.83745-0.43503-1.9359-0.43503-1.1202 0-1.9685 0.43503-0.84832 0.43504-1.4247 1.2398-0.56555 0.80482-0.84832 1.9359-0.2719 1.1311-0.2719 2.5123t0.28278 2.5341q0.29365 1.142 0.85919 1.9794 0.56555 0.82656 1.403 1.2942 0.84832 0.45678 1.9468 0.45678 1.1746 0 2.0229-0.46766 0.8592-0.46766 1.403-1.2942 0.55467-0.83744 0.81569-1.9903 0.2719-1.1528 0.2719-2.5123z"/>
   <path d="m-333.57 157.61q-1.0658 0-1.8924 0.43503-0.82657 0.43504-1.3812 1.2398-0.55467 0.80482-0.84832 1.9359-0.28277 1.1311-0.28277 2.5123t0.30452 2.5341q0.3154 1.142 0.88095 1.9685 0.57642 0.82657 1.4139 1.2834 0.83744 0.45678 1.8815 0.45678 0.72869 0 1.3269-0.22839 0.59818-0.23927 1.0876-0.66343t0.87007-1.0006q0.38066-0.5873 0.67431-1.2942l1.3921 0.84832q-0.33715 0.85919-0.83744 1.5988-0.50029 0.73956-1.1746 1.2834-0.6743 0.54379-1.5226 0.85919-0.84832 0.30453-1.9033 0.30453-1.5226 0-2.6755-0.5873-1.142-0.59817-1.9142-1.6531-0.76131-1.0658-1.1528-2.5232-0.38066-1.4574-0.38066-3.1866 0-1.7945 0.40241-3.241 0.41328-1.4465 1.1855-2.458 0.78307-1.0223 1.925-1.5661 1.142-0.55467 2.5993-0.55467 2.0012 0 3.3498 0.95707 1.3486 0.95708 1.9794 2.8386l-1.6096 0.65256q-0.17402-0.5438-0.47854-1.0332-0.30453-0.5003-0.76131-0.88095-0.45679-0.38066-1.0658-0.60905-0.60905-0.22839-1.3921-0.22839z"/>
   <path d="m-314.1 163.73q0 1.7945-0.42416 3.2628-0.42416 1.4682-1.229 2.5123-0.80481 1.0441-1.9685 1.6096-1.1528 0.56555-2.632 0.56555-1.5552 0-2.719-0.5873-1.1637-0.59817-1.9468-1.6531-0.77218-1.0658-1.1637-2.5232-0.39153-1.4574-0.39153-3.1866 0-1.7945 0.40241-3.241 0.41328-1.4465 1.2072-2.458 0.79394-1.0223 1.9577-1.5661 1.1637-0.55467 2.6755-0.55467 1.5009 0 2.6646 0.55467t1.9468 1.577q0.79394 1.0223 1.2072 2.4688 0.41329 1.4465 0.41329 3.2193zm-1.7401 0q0-1.3812-0.29365-2.5123t-0.8592-1.9359q-0.56555-0.80481-1.403-1.2398-0.83744-0.43503-1.9359-0.43503-1.1202 0-1.9685 0.43503-0.84832 0.43504-1.4248 1.2398-0.56554 0.80482-0.84831 1.9359-0.2719 1.1311-0.2719 2.5123t0.28277 2.5341q0.29365 1.142 0.8592 1.9794 0.56554 0.82656 1.403 1.2942 0.84832 0.45678 1.9468 0.45678 1.1746 0 2.0229-0.46766 0.85919-0.46766 1.403-1.2942 0.55467-0.83744 0.81569-1.9903 0.2719-1.1528 0.2719-2.5123z"/>
   <path d="m-300.91 163.64q0 1.9142-0.47853 3.3824-0.46767 1.4574-1.2942 2.4471-0.81569 0.97883-1.9359 1.49-1.1202 0.50029-2.4036 0.50029h-4.6984v-15.324h4.1546q1.4574 0 2.6755 0.44591 1.2181 0.43504 2.099 1.3595 0.89182 0.91357 1.3812 2.3274 0.50029 1.4139 0.50029 3.3715zm-1.7184 0q0-1.5552-0.36978-2.6537-0.3589-1.1093-1.0223-1.8163-0.65255-0.70693-1.577-1.0332-0.91358-0.33715-2.012-0.33715h-2.4144v11.996h2.806q0.9897 0 1.8272-0.39153 0.83744-0.39154 1.4465-1.1637 0.61993-0.77219 0.96796-1.925 0.34802-1.1528 0.34802-2.6755z"/>
   <path d="m-298.54 171.46v-15.324h9.5273v1.6966h-7.8306v4.9159h7.2977v1.6749h-7.2977v5.3401h8.2004v1.6966z"/>
   <path d="m-277.48 171.46-3.2628-6.3624h-3.9153v6.3624h-1.6966v-15.324h5.9056q1.0658 0 1.8924 0.30452 0.82657 0.29365 1.3812 0.8592 0.56554 0.56555 0.85919 1.3812 0.29365 0.81569 0.29365 1.838 0 0.72869-0.17401 1.4356-0.17402 0.70693-0.55467 1.2942-0.36978 0.5873-0.94621 1.0115-0.57642 0.42416-1.3921 0.59817l3.5673 6.6017zm-0.25014-10.919q0-0.69606-0.19577-1.2072-0.19577-0.51117-0.57642-0.84832-0.36978-0.34803-0.9027-0.51116-0.53292-0.17402-1.2181-0.17402h-4.035v5.6555h4.1111q0.72869 0 1.2616-0.21751 0.5438-0.2284 0.88095-0.61993 0.34803-0.39153 0.51117-0.92445t0.16314-1.1528z"/>
  </g>
 </g>
</svg>
